<?xml version="1.0" encoding="utf-8"?>
<!-- Generator: Adobe Illustrator 19.2.1, SVG Export Plug-In . SVG Version: 6.00 Build 0)  -->
<svg version="1.1" id="Layer_1" xmlns="http://www.w3.org/2000/svg" xmlns:xlink="http://www.w3.org/1999/xlink" x="0px" y="0px"
	 viewBox="0 0 76.7 77" style="enable-background:new 0 0 76.7 77;" xml:space="preserve">
<style type="text/css">
	.st0{fill:#3A559F;}
	.st1{fill:#FFFFFF;}
</style>
<g>
	<path class="st0" d="M39.4,4L39.4,4C20,4,4.2,19,4.2,39h0c0,17,12.6,31.6,29.1,34.4L33.7,47H25V35h9c0,0,0,0.3,0-9.9
		C34.1,13.9,45.3,14,45.3,14h10.5l-0.2,9.9c0,0-3.2-0.3-6.8,0c-3.6,0.3-3.7,3.5-3.7,3.5l0,7.5h10.5l-1.5,11.1l-8.9,0.5
		c0,0,0.5,23.7,0.2,26.5C62,70.2,75,55.9,75,38.6v0C75,19.2,58.7,4,39.4,4z"/>
	<path class="st1" d="M45.3,46.6l8.9-0.6L55.6,35H45.1l0-7.6c0,0,0.1-3.3,3.7-3.6c3.6-0.3,6.8,0.1,6.8,0.1l0.2-9.9H45.3
		c0,0-11.2-0.1-11.2,11.1c0,10.2,0,9.9,0,9.9h-9v12h8.7l-0.4,26.2l0,0.2c4.5,0.7,8.6,0.2,11.7,0c0,0,0-0.1,0.1-0.3
		C45.4,70.3,45.3,46.6,45.3,46.6z"/>
</g>
</svg>
