<?xml version="1.0" encoding="utf-8"?>
<!-- Generator: Adobe Illustrator 19.2.1, SVG Export Plug-In . SVG Version: 6.00 Build 0)  -->
<svg version="1.1" id="Layer_1" xmlns="http://www.w3.org/2000/svg" xmlns:xlink="http://www.w3.org/1999/xlink" x="0px" y="0px"
	 viewBox="0 0 60.4 60.5" style="enable-background:new 0 0 60.4 60.5;" xml:space="preserve">
<style type="text/css">
	.st0{fill:#0E76A8;}
	.st1{fill:#FFFFFF;}
</style>
<g>
	<path class="st0" d="M30,1.7c16,0,29,13,29,29s-13,29-29,29s-29-13-29-29S14,1.7,30,1.7z"/>
	<path class="st1" d="M17.4,41.6h5.4V23.4h-5.4V41.6z M38.6,22.8c-2.6,0-5,1-6.7,3.1v-2.5h-5.5v18.2h5.5v-9.8c0-2.1,1.9-4.1,4.3-4.1
		s3,2,3,4.1v9.9h5.4V31.3C44.6,24.1,41.2,22.8,38.6,22.8z M20.1,21.6c1.5,0,2.7-1.2,2.7-2.7c0-1.5-1.2-2.7-2.7-2.7s-2.7,1.2-2.7,2.7
		S18.6,21.6,20.1,21.6z"/>
</g>
</svg>
