<?xml version="1.0" encoding="utf-8"?>
<!-- Generator: Adobe Illustrator 19.2.1, SVG Export Plug-In . SVG Version: 6.00 Build 0)  -->
<svg version="1.1" id="Layer_1" xmlns="http://www.w3.org/2000/svg" xmlns:xlink="http://www.w3.org/1999/xlink" x="0px" y="0px"
	 viewBox="0 0 80.1 73.6" style="enable-background:new 0 0 80.1 73.6;" xml:space="preserve">
<style type="text/css">
	.st0{fill:#919FBC;}
	.st1{fill:#B0B9D1;}
	.st2{fill:#46388C;}
	.st3{fill:#331E7C;}
	.st4{fill:#FFFFFF;}
</style>
<polygon class="st0" points="77,73.6 3.1,73.6 0,26.8 80.1,26.8 "/>
<path class="st1" d="M76.6,23.3c-2.1-1.8-28.4-18.5-33-21.4c-0.6-0.4-1.2-0.6-1.8-0.8C41.3,1,40.7,1,40.2,1c-0.6,0-1.2,0.1-1.8,0.2
	c-0.6,0.2-1.2,0.4-1.8,0.8c-4.5,2.8-31,19.5-33.1,21.4C1.4,25.1,0,26.8,0,26.8h40.2h40C80.1,26.8,78.7,25.1,76.6,23.3z"/>
<path class="st2" d="M72.8,70.4c-2.1-1.8-24.6-18.8-29.1-21.7c-0.6-0.4-1.2-0.6-1.8-0.8c-0.5-0.1-1.1-0.2-1.7-0.2
	c-0.6,0-1.2,0.1-1.8,0.2c-0.6,0.2-1.2,0.4-1.8,0.8C32.1,51.5,9.5,68.6,7.4,70.4c-2.1,1.8-4.3,3.2-4.3,3.2h37H77
	C77,73.6,74.8,72.2,72.8,70.4z"/>
<polygon class="st3" points="80.1,26.8 77,73.6 44.3,49.1 "/>
<polygon class="st3" points="0,26.8 3.1,73.6 36,49.1 "/>
<path class="st4" d="M40.5,49.8l-1.9-1.9l11.2-10.9c1.9-1.9,4.1-3.5,6.6-4.7l0.6-0.3l-0.4,0.7c-1.3,2.3-2.9,4.4-4.8,6.2L40.5,49.8z"
	/>
<path class="st4" d="M41.7,47.8l-1.9,1.9L22.9,32.3c-2.9-3-5.5-6.2-7.7-9.7l-0.5-0.8l0.9,0.7c3.3,2.3,6.4,4.9,9.2,7.8L41.7,47.8z"/>
<ellipse transform="matrix(0.7174 -0.6966 0.6966 0.7174 -22.2248 41.7009)" class="st3" cx="40.3" cy="48.2" rx="3.2" ry="3.2"/>
</svg>
