<?xml version="1.0" encoding="utf-8"?>
<!-- Generator: Adobe Illustrator 19.2.1, SVG Export Plug-In . SVG Version: 6.00 Build 0)  -->
<svg version="1.1" id="Layer_1" xmlns="http://www.w3.org/2000/svg" xmlns:xlink="http://www.w3.org/1999/xlink" x="0px" y="0px"
	 viewBox="0 0 291.3 291.3" style="enable-background:new 0 0 291.3 291.3;" xml:space="preserve">
<style type="text/css">
	.st0{fill:#919FBC;}
	.st1{fill:#B0B9D1;}
	.st2{fill:#4E567A;}
	.st3{fill:#5C628E;}
	.st4{fill:none;stroke:#4E567A;stroke-width:3;stroke-miterlimit:10;}
</style>
<polygon class="st0" points="190.5,166.3 116.6,166.3 113.5,119.6 193.6,119.6 "/>
<path class="st1" d="M190.1,116.1c-2.1-1.8-28.4-18.5-33-21.4c-0.6-0.4-1.2-0.6-1.8-0.8c-0.5-0.1-1.1-0.2-1.7-0.2
	c-0.6,0-1.2,0.1-1.8,0.2c-0.6,0.2-1.2,0.4-1.8,0.8c-4.5,2.8-31,19.5-33.1,21.4c-2.1,1.8-3.5,3.5-3.5,3.5h40.2h40
	C193.6,119.6,192.2,117.8,190.1,116.1z"/>
<path class="st2" d="M186.3,163.2c-2.1-1.8-24.6-18.8-29.1-21.7c-0.6-0.4-1.2-0.6-1.8-0.8c-0.5-0.1-1.1-0.2-1.7-0.2
	c-0.6,0-1.2,0.1-1.8,0.2c-0.6,0.2-1.2,0.4-1.8,0.8c-4.5,2.8-27.1,19.9-29.2,21.7c-2.1,1.8-4.3,3.2-4.3,3.2h37h36.8
	C190.5,166.3,188.3,164.9,186.3,163.2z"/>
<polygon class="st3" points="193.6,119.6 190.5,166.3 157.8,141.8 "/>
<polygon class="st3" points="113.5,119.6 116.6,166.3 149.5,141.8 "/>
<g>
	<g>
		<g>
			<path class="st4" d="M77.3,52.2c0,0,2.3,3.3,4.7,6.6c2.4,3.3,5,6.4,5,6.4"/>
			<path class="st4" d="M91.3,70.5c0,0,2.6,3.1,5.3,6.1c2.7,3,5.5,6,5.5,6"/>
			<path class="st4" d="M105.8,86.4c0,0,2.9,2.9,5.8,5.7c3,2.8,6,5.5,6,5.5"/>
		</g>
	</g>
</g>
<g>
	<g>
		<g>
			<path class="st4" d="M235.2,72.6c0,0,0,0.2,0,0.6c0,0.4-0.1,0.9-0.2,1.6c-0.3,1.3-0.9,2.9-1.8,4.4c-0.9,1.5-1.9,2.9-2.8,3.9
				c-0.8,1-1.4,1.6-1.4,1.6"/>
			<path class="st4" d="M225,88.8c0,0-2.5,2.5-5.1,4.7c-1.3,1.1-2.6,2.3-3.7,3.1c-1,0.8-1.7,1.3-1.7,1.3"/>
			<path class="st4" d="M211,100.5c0,0-2.8,2-5.8,3.8c-2.9,1.8-6,3.4-6,3.4"/>
		</g>
	</g>
</g>
<g>
	<g>
		<g>
			<path class="st4" d="M33.1,157.7c0,0,3.9,0.1,7.8,0.1c2,0,3.9-0.1,5.4-0.2c1.5-0.1,2.4-0.2,2.4-0.2"/>
			<path class="st4" d="M55.1,156.7c0,0,3.9-0.5,7.7-1.2c3.8-0.7,7.6-1.6,7.6-1.6"/>
			<path class="st4" d="M75.3,152.6c0,0,0.9-0.2,2.3-0.7c1.4-0.4,3.3-1,5.1-1.7c3.7-1.3,7.3-2.8,7.3-2.8"/>
		</g>
	</g>
</g>
<g>
	<g>
		<g>
			<path class="st4" d="M228.4,244.5c0,0-0.9-3.5-2-6.9c-0.6-1.7-1.2-3.4-1.6-4.7c-0.5-1.3-0.8-2.1-0.8-2.1"/>
			<path class="st4" d="M221.6,225.2c0,0-1.5-3.3-3.2-6.5c-1.7-3.2-3.6-6.3-3.6-6.3"/>
			<path class="st4" d="M212.3,208.6c0,0-0.5-0.8-1.3-1.9c-0.8-1.1-1.8-2.6-2.9-4c-2.2-2.9-4.6-5.6-4.6-5.6"/>
		</g>
	</g>
</g>
<g>
	<g>
		<g>
			<line class="st4" x1="258.6" y1="148" x2="245.3" y2="147.5"/>
			<line class="st4" x1="239.8" y1="147.3" x2="226.6" y2="146.9"/>
			<line class="st4" x1="222.3" y1="146.7" x2="209.1" y2="146.3"/>
		</g>
	</g>
</g>
<g>
	<g>
		<g>
			<path class="st4" d="M115.3,196.1c0,0-0.1,0.8-0.4,1.9c-0.3,1.1-0.9,2.5-1.6,3.9c-0.7,1.4-1.5,2.7-2.2,3.6c-0.6,1-1,1.6-1,1.6"/>
			<path class="st4" d="M107.3,211.5c0,0-1.6,2.6-3.1,5.3c-1.5,2.7-2.9,5.4-2.9,5.4"/>
			<path class="st4" d="M99.5,225.8c0,0-1.4,2.8-2.7,5.6c-1.3,2.8-2.5,5.6-2.5,5.6"/>
		</g>
	</g>
</g>
</svg>
