<?xml version="1.0" encoding="utf-8"?>
<!-- Generator: Adobe Illustrator 19.2.1, SVG Export Plug-In . SVG Version: 6.00 Build 0)  -->
<svg version="1.1" id="Layer_1" xmlns="http://www.w3.org/2000/svg" xmlns:xlink="http://www.w3.org/1999/xlink" x="0px" y="0px"
	 viewBox="0 0 74.8 73.8" style="enable-background:new 0 0 74.8 73.8;" xml:space="preserve">
<style type="text/css">
	.st0{fill:#15ACE5;}
	.st1{fill:#FFFFFF;}
</style>
<g>
	<path class="st0" d="M37.6,0.7L37.6,0.7c19.9,0,36.1,16.1,36.1,36.1v0c0,19.9-16.1,36.1-36.1,36.1h0c-19.9,0-36.1-16.1-36.1-36.1v0
		C1.6,16.8,17.7,0.7,37.6,0.7z"/>
	<path class="st1" d="M61.6,41.4c0.3-1.4,0.4-2.9,0.4-4.4c0-12.8-10.4-23.2-23.2-23.2c-1.5,0-3,0.1-4.4,0.4c-2.1-1.2-4.5-1.9-7-1.8
		c-7.1,0.2-12.9,5.9-13.1,13.1c-0.1,2.6,0.6,5,1.8,7c-0.3,1.4-0.4,2.9-0.4,4.4c0,12.8,10.4,23.2,23.2,23.2c1.5,0,3-0.1,4.4-0.4
		c2,1.2,4.3,1.8,6.7,1.8c7.4,0,13.4-6,13.4-13.4C63.5,45.6,62.8,43.3,61.6,41.4z M39.4,52.8c-8.2,0-12.3-3.1-13.6-7
		c-1.3-3.9,1.5-5,2.4-5.1c0.9-0.1,2.7,0.1,3.2,1.7c0.5,1.7,2.4,5,6.3,5.4c4,0.4,6.6-1.4,7.4-3.3c0.8-1.9-0.6-4.5-6.7-5.4
		c-6.1-0.9-12.4-3.6-12.4-9.7s7-8.5,13.6-8.5s10,3.8,10.8,5.2c0.9,1.8,0.6,4.9-1.6,5.4c-2.3,0.6-3.5-0.7-5.1-3.8
		c-1.7-3.2-7.8-2.4-9.9-0.6s-1.5,4.4,7,6.1c8.5,1.7,11.7,4.7,11.7,9.6S47.6,52.8,39.4,52.8z"/>
</g>
</svg>
