<?xml version="1.0" encoding="utf-8"?>
<!-- Generator: Adobe Illustrator 19.2.1, SVG Export Plug-In . SVG Version: 6.00 Build 0)  -->
<svg version="1.1" id="Layer_1" xmlns="http://www.w3.org/2000/svg" xmlns:xlink="http://www.w3.org/1999/xlink" x="0px" y="0px"
	 viewBox="0 0 76.7 77" style="enable-background:new 0 0 76.7 77;" xml:space="preserve">
<style type="text/css">
	.st0{fill:#61A8DE;}
	.st1{fill:#FFFFFF;}
</style>
<g>
	<path class="st0" d="M38.2,0.9L38.2,0.9c20.7,0,37.5,16.8,37.5,37.5v0c0,20.7-16.8,37.5-37.5,37.5h0c-20.7,0-37.5-16.8-37.5-37.5v0
		C0.7,17.7,17.5,0.9,38.2,0.9z"/>
	<path class="st1" d="M59.8,17.5L9.6,37c-1.6,0.6-1.5,3,0.1,3.5l12.7,3.8l4.8,15.1c0.5,1.6,2.5,2.1,3.7,0.9l6.6-6.7l12.9,9.5
		c1.6,1.2,3.8,0.3,4.2-1.6l8.6-40.9C63.7,18.4,61.7,16.7,59.8,17.5z M53.5,26.5L30.2,47.1c-0.2,0.2-0.4,0.5-0.4,0.8l-0.9,8
		c0,0.3-0.4,0.3-0.5,0l-3.7-11.9c-0.2-0.5,0.1-1.1,0.5-1.4l27.5-17.1C53.4,25.2,54.1,26,53.5,26.5z"/>
</g>
</svg>
