<?xml version="1.0" encoding="utf-8"?>
<!-- Generator: Adobe Illustrator 19.2.1, SVG Export Plug-In . SVG Version: 6.00 Build 0)  -->
<svg version="1.1" id="Layer_1" xmlns="http://www.w3.org/2000/svg" xmlns:xlink="http://www.w3.org/1999/xlink" x="0px" y="0px"
	 viewBox="0 0 77.7 77.8" style="enable-background:new 0 0 77.7 77.8;" xml:space="preserve">
<style type="text/css">
	.st0{fill:#44678D;}
	.st1{fill:#FFFFFF;}
</style>
<g>
	<path class="st0" d="M38.5,1.3L38.5,1.3c21.1,0,38.2,17.1,38.2,38.2v0c0,21.1-17.1,38.2-38.2,38.2h0c-21.1,0-38.2-17.1-38.2-38.2v0
		C0.3,18.4,17.4,1.3,38.5,1.3z"/>
	<path class="st1" d="M20.1,24.5c1.8,4.5,4.1,8.8,7.2,12.6c0.4,0.5,0.9,1,1.5,1.3c0.8,0.5,1.5,0.3,1.8-0.5c0.3-0.9,0.6-2.9,0.7-3.8
		c0.1-2.6,0-4.3-0.1-6.9c-0.1-1.7-0.7-3.1-3.1-3.5c-0.8-0.1-0.8-0.8-0.3-1.4c1-1.3,2.4-1.5,3.9-1.6c2.5-0.1,4.9,0,7.4,0
		c1,0,2,0.1,3,0.3c1.3,0.3,2,1.2,2.2,2.4c0.1,0.6,0.2,1.3,0.2,2c-0.1,2.8-0.2,5.6-0.2,8.5c0,1.1,0.1,2.2,0.3,3.3
		c0.3,1.5,1.4,1.9,2.4,0.8c1.3-1.4,2.5-2.9,3.6-4.5c2-2.9,3.5-6,4.8-9.3c0.7-1.7,1.2-2,3-2c3.4,0,6.8,0,10.2,0
		c0.6,0,1.2,0.1,1.8,0.2c0.9,0.3,1.3,1,1.1,2c-0.8,3.5-3.3,6.1-5.1,8.9c-1.2,1.8-2.4,3.6-3.9,5.2c-0.4,0.5-0.8,1.1-1.1,1.6
		c-0.8,1.4-0.7,2.2,0.4,3.4c1.8,1.9,3.8,3.7,5.6,5.6c1.3,1.4,2.5,3,3.5,4.6c1.3,2.1,0.5,4-1.9,4.3c-1.5,0.2-9,0-9.4,0
		c-2,0-3.8-0.7-5.2-2.1c-1.6-1.5-3-3.2-4.5-4.8c-0.5-0.5-0.9-0.9-1.5-1.3c-1.2-0.9-2.4-0.7-3,0.7c-0.5,1.2-0.9,4.5-0.9,4.8
		c-0.1,1.5-1,2.4-2.7,2.5c-4.7,0.3-9.3-0.3-13.6-2.6c-3.6-1.9-6.5-4.7-9-7.9c-4-5.1-7.1-10.7-10-16.4c-0.1-0.3-3.1-6.5-3.1-6.8
		c-0.3-1,0-1.9,0.8-2.2c0.5-0.2,10.1,0,10.2,0C18.4,22.3,19.4,23,20.1,24.5z"/>
</g>
</svg>
