<?xml version="1.0" encoding="utf-8"?>
<!-- Generator: Adobe Illustrator 19.2.1, SVG Export Plug-In . SVG Version: 6.00 Build 0)  -->
<svg version="1.1" id="Layer_1" xmlns="http://www.w3.org/2000/svg" xmlns:xlink="http://www.w3.org/1999/xlink" x="0px" y="0px"
	 viewBox="0 0 69.5 69.1" style="enable-background:new 0 0 69.5 69.1;" xml:space="preserve">
<style type="text/css">
	.st0{fill:#1BD741;}
	.st1{fill:#FFFFFF;}
</style>
<g>
	<path class="st0" d="M35.3,0.7L35.3,0.7c18.9,0,34.2,15.3,34.2,34.2v0c0,18.9-15.3,34.2-34.2,34.2h0c-18.9,0-34.2-15.3-34.2-34.2v0
		C1.1,16,16.4,0.7,35.3,0.7z"/>
	<g>
		<path class="st1" d="M11.4,58.8l3.3-11.9c-2.2-3.7-3.3-7.8-3.3-12.1c0-13.2,10.7-23.9,23.9-23.9s23.9,10.7,23.9,23.9
			S48.5,58.7,35.3,58.7c-4.1,0-8.1-1.1-11.7-3L11.4,58.8z M24.3,51.3l0.7,0.4c3.1,1.9,6.7,2.9,10.3,2.9c10.9,0,19.8-8.9,19.8-19.8
			S46.3,15,35.3,15s-19.8,8.9-19.8,19.8c0,3.8,1.1,7.5,3.1,10.7l0.5,0.8l-1.9,6.9L24.3,51.3z"/>
		<path class="st1" d="M28.6,23.7l-1.5-0.1c-0.5,0-1,0.1-1.3,0.5c-0.8,0.7-2,1.9-2.3,3.6c-0.6,2.5,0.3,5.5,2.5,8.5
			c2.2,3,6.3,7.8,13.6,9.9c2.3,0.7,4.2,0.2,5.6-0.7c1.1-0.7,1.9-1.9,2.2-3.2l0.2-1.2c0.1-0.4-0.1-0.7-0.4-0.9l-5.2-2.4
			c-0.3-0.2-0.7-0.1-1,0.2l-2.1,2.7c-0.2,0.2-0.4,0.3-0.7,0.2c-1.4-0.5-6.1-2.5-8.7-7.5c-0.1-0.2-0.1-0.5,0.1-0.7l2-2.3
			c0.2-0.2,0.3-0.6,0.1-0.8l-2.3-5.3C29.2,23.9,28.9,23.7,28.6,23.7z"/>
	</g>
</g>
</svg>
